<?xml version="1.0" encoding="UTF-8" standalone="no"?>
<!-- Created with Inkscape (http://www.inkscape.org/) -->

<svg
   width="150"
   height="150"
   viewBox="0 0 39.6875 39.6875"
   version="1.1"
   id="svg206"
   inkscape:version="1.2.2 (732a01da63, 2022-12-09)"
   sodipodi:docname="d20nav.svg"
   xmlns:inkscape="http://www.inkscape.org/namespaces/inkscape"
   xmlns:sodipodi="http://sodipodi.sourceforge.net/DTD/sodipodi-0.dtd"
   xmlns="http://www.w3.org/2000/svg"
   xmlns:svg="http://www.w3.org/2000/svg">
  <sodipodi:namedview
     id="namedview208"
     pagecolor="#ffffff"
     bordercolor="#000000"
     borderopacity="0.25"
     inkscape:showpageshadow="2"
     inkscape:pageopacity="0.0"
     inkscape:pagecheckerboard="0"
     inkscape:deskcolor="#d1d1d1"
     inkscape:document-units="mm"
     showgrid="false"
     inkscape:zoom="3.1251122"
     inkscape:cx="95.996552"
     inkscape:cy="92.15669"
     inkscape:window-width="1920"
     inkscape:window-height="1057"
     inkscape:window-x="-8"
     inkscape:window-y="-8"
     inkscape:window-maximized="1"
     inkscape:current-layer="layer1" />
  <defs
     id="defs203" />
  <g
     inkscape:label="Capa 1"
     inkscape:groupmode="layer"
     id="layer1">
    <path
       d="M 5.132919,6.2074316 C 5.1157048,6.4442 5.296503,6.6508341 5.5332713,6.6680529 c 0.00862,0 0.021526,0 0.030133,0 0.2238529,0 0.4132677,-0.1721945 0.4304868,-0.4003524 C 6.2177455,3.0777891 9.007301,3.2284593 9.127838,3.2370697 9.3603012,3.2456881 9.5712405,3.0734841 9.5884597,2.8367158 9.6056739,2.5999491 9.4291718,2.3933151 9.1924103,2.3760946 9.1278337,2.3718644 7.6168274,2.2727777 6.4372929,3.2930334 5.6624158,3.9645934 5.2233188,4.9461043 5.1329172,6.2074316 Z M 3.06658,5.7511158 c 0.034444,0.00862 0.064577,0.012853 0.099005,0.012853 0.1980236,0 0.3745231,-0.1334496 0.4175729,-0.33578 C 4.6507653,0.78753734 8.2754689,1.0243056 8.4433576,1.0372194 8.6801267,1.0630405 8.8867607,0.88224405 8.908284,0.64547573 8.9298086,0.40870746 8.753309,0.19777006 8.5165408,0.18054949 8.4734919,0.17631944 3.9835104,-0.15953573 2.743707,5.234471 2.6920485,5.4669342 2.8384163,5.6950921 3.0665732,5.7510556 Z M 37.139646,15.467212 28.258694,4.2142755 C 27.643098,3.4350932 26.708939,2.9873877 25.731733,2.9873877 c -0.129138,0 -0.258292,0.00862 -0.387438,0.021526 L 10.552754,4.7997391 C 9.9242414,4.8772348 9.3516924,5.1355193 8.8824612,5.5272629 l -0.012852,-0.00424 v 0.017215 C 8.4735592,5.8760268 8.1506945,6.2979033 7.9526693,6.7972691 L 2.2616287,20.955996 c -0.4390971,1.089133 -0.2453785,2.333239 0.4993641,3.241567 l 9.4448922,11.524144 c 0.615596,0.753354 1.532532,1.179535 2.488214,1.179535 0.146369,0 0.297038,-0.0087 0.447708,-0.03014 l 14.201776,-1.984548 c 1.14079,-0.159287 2.11369,-0.916937 2.544179,-1.988852 l 5.71687,-14.236205 c 0.426183,-1.06761 0.249682,-2.290194 -0.464926,-3.194218 z M 10.681899,5.8673466 25.473441,4.076519 c 0.08609,-0.00862 0.172194,-0.017215 0.258292,-0.017215 0.01721,0 0.03445,0.00424 0.05166,0.00424 l -3.340586,8.050105 -0.124841,0.08179 L 9.9931172,6.078214 C 10.204057,5.9705856 10.436519,5.8974094 10.681897,5.867275 Z M 25.692989,29.600109 8.6629137,22.540118 22.399762,13.435312 c 0.04305,0.01721 0.08611,0.03445 0.129138,0.05166 z m -1.988852,-15.70848 11.097965,3.766763 c 0.477839,0.163586 0.641424,0.757657 0.309949,1.140792 l -8.51504,9.828025 z M 9.8166194,7.1932478 21.284801,12.884288 8.7188773,21.214217 Z M 3.2602984,21.356278 8.6844382,7.8475874 7.578086,21.963266 l -0.2152441,0.142056 -4.2532137,0.0087 c 0.00424,-0.253989 0.05166,-0.512281 0.1506638,-0.757659 z m 0.3314751,2.161046 C 3.5099825,23.414011 3.4411096,23.306386 3.3765308,23.194459 l 4.0422746,-0.0087 0.4046575,0.16789 4.6406521,10.99034 z M 14.715564,34.976896 c -0.365913,0.176499 -0.809316,0.01285 -0.96429,-0.361609 L 9.2397653,23.9392 24.440272,30.24584 Z m 14.477286,-1.158011 -13.521605,1.88984 10.099232,-4.911861 0.357305,0.150664 3.245874,2.836911 c -0.06027,0.01285 -0.120531,0.02584 -0.180806,0.03445 z m 1.691815,-1.321595 c -0.111923,0.28412 -0.288425,0.533802 -0.499364,0.736131 L 26.906963,30.198486 26.859613,29.966023 36.25715,19.11344 Z m 5.777141,-15.346873 -13.194434,-4.477066 -0.03014,-0.142057 3.387936,-8.1620382 c 0.223852,0.1334497 0.421875,0.3056456 0.585461,0.5122796 l 8.885258,11.2572406 c 0.245377,0.309951 0.391743,0.675866 0.439096,1.054695 -0.02583,-0.01721 -0.04735,-0.03445 -0.07318,-0.04305 z m -0.25399,16.797613 c -0.232463,-0.05166 -0.464926,0.09041 -0.516585,0.322865 -1.067606,4.640653 -4.696615,4.403885 -4.860198,4.390971 -0.232464,-0.02152 -0.443403,0.154974 -0.464928,0.391744 -0.02152,0.236767 0.154976,0.447706 0.391743,0.464926 0.0042,0 0.06886,0.0042 0.180804,0.0042 0.85667,0 4.494287,-0.288426 5.59203,-5.06253 0.05165,-0.228158 -0.09041,-0.456315 -0.322866,-0.512279 z m -2.066338,-0.456317 c 0.01721,-0.236765 -0.163585,-0.4434 -0.400353,-0.460621 -0.245379,-0.02152 -0.443402,0.163585 -0.460619,0.400354 -0.223856,3.189909 -3.017716,3.03924 -3.13395,3.030629 -0.232463,-0.01285 -0.443401,0.163587 -0.460621,0.400355 -0.01721,0.236766 0.159286,0.443399 0.396049,0.46062 0.01285,0 0.06886,0.0042 0.159287,0.0042 0.426184,0 1.627242,-0.08178 2.59584,-0.921243 0.774877,-0.67156 1.213973,-1.653071 1.304374,-2.9144 z"
       id="path4"
       style="stroke-width:0.430486" />
  </g>
</svg>
